<svg xmlns="http://www.w3.org/2000/svg" viewBox="0 0 74.98 74.98"><g id="Layer_2" data-name="Layer 2"><g id="Layer_1-2" data-name="Layer 1"><path d="M69.7,18.29A37.54,37.54,0,0,0,18.41,5.21l-.12.07A37.48,37.48,0,0,0,32,74.56l.14,0,.78.11.87.1.36,0c.34,0,.68.06,1,.08s.79,0,1.19.06l1.2,0a37.31,37.31,0,0,0,16.92-4l1.09-.58,1.13-.65.43-.26c.59-.36,1.16-.73,1.71-1.12.36-.24.71-.49,1.05-.74s.7-.54,1-.81h0A37.52,37.52,0,0,0,69.7,18.29ZM58.08,62.64h0l-5.75-8.33a22.49,22.49,0,0,1-29.5-33.93,19.52,19.52,0,0,1,1.95-1.58,16.61,16.61,0,0,1,2.09-1.36l-5.6-8.11h0A32.52,32.52,0,0,1,65.41,20.85,32.57,32.57,0,0,1,58.08,62.64Z"/><path d="M27.61,22.91a15.73,15.73,0,0,0-1.91,1.64A17.49,17.49,0,0,0,38,54.49a17.23,17.23,0,0,0,7.28-1.6,16.23,16.23,0,0,0,2.21-1.2,18.18,18.18,0,0,0,2-1.5L29.71,21.58A16.2,16.2,0,0,0,27.61,22.91Z"/></g></g></svg>